<svg width="28" height="28" viewBox="0 0 28 28" fill="none" xmlns="http://www.w3.org/2000/svg">
<path d="M5.25 1.5C5.25 0.8125 4.6875 0.25 4 0.25C3.3125 0.25 2.75 0.8125 2.75 1.5V6.5H0.25V14H7.75V6.5H5.25V1.5ZM10.25 19C10.25 20.625 11.3 22 12.75 22.525V27.75H15.25V22.525C16.7 22.0125 17.75 20.6375 17.75 19V16.5H10.25V19ZM0.25 19C0.25 20.625 1.3 22 2.75 22.525V27.75H5.25V22.525C6.7 22 7.75 20.625 7.75 19V16.5H0.25V19ZM25.25 6.5V1.5C25.25 0.8125 24.6875 0.25 24 0.25C23.3125 0.25 22.75 0.8125 22.75 1.5V6.5H20.25V14H27.75V6.5H25.25ZM15.25 1.5C15.25 0.8125 14.6875 0.25 14 0.25C13.3125 0.25 12.75 0.8125 12.75 1.5V6.5H10.25V14H17.75V6.5H15.25V1.5ZM20.25 19C20.25 20.625 21.3 22 22.75 22.525V27.75H25.25V22.525C26.7 22.0125 27.75 20.6375 27.75 19V16.5H20.25V19Z" fill="black"/>
</svg>
