<svg width="28" height="20" viewBox="0 0 28 20" fill="none" xmlns="http://www.w3.org/2000/svg">
<path d="M2.75 2.5H25.25V0H2.75C1.375 0 0.25 1.125 0.25 2.5V17.5C0.25 18.875 1.375 20 2.75 20H7.75V17.5H2.75V2.5ZM15.25 10H10.25V12.225C9.4875 12.9125 9 13.8875 9 15C9 16.1125 9.4875 17.0875 10.25 17.775V20H15.25V17.775C16.0125 17.0875 16.5 16.1 16.5 15C16.5 13.9 16.0125 12.9125 15.25 12.225V10ZM12.75 16.875C11.7125 16.875 10.875 16.0375 10.875 15C10.875 13.9625 11.7125 13.125 12.75 13.125C13.7875 13.125 14.625 13.9625 14.625 15C14.625 16.0375 13.7875 16.875 12.75 16.875ZM26.5 5H19C18.375 5 17.75 5.625 17.75 6.25V18.75C17.75 19.375 18.375 20 19 20H26.5C27.125 20 27.75 19.375 27.75 18.75V6.25C27.75 5.625 27.125 5 26.5 5ZM25.25 17.5H20.25V7.5H25.25V17.5Z" fill="black"/>
</svg>
