<svg width="40" height="40" viewBox="0 0 40 40" fill="none" xmlns="http://www.w3.org/2000/svg">
<circle cx="20" cy="20" r="20" fill="#00C9B1"/>
<g clip-path="url(#clip0_25_54)">
<path d="M23.5 9H15.5C14.12 9 13 10.12 13 11.5V28.5C13 29.88 14.12 31 15.5 31H23.5C24.88 31 26 29.88 26 28.5V11.5C26 10.12 24.88 9 23.5 9ZM19.5 30C18.67 30 18 29.33 18 28.5C18 27.67 18.67 27 19.5 27C20.33 27 21 27.67 21 28.5C21 29.33 20.33 30 19.5 30ZM24 26H15V12H24V26Z" fill="white"/>
</g>
<defs>
<clipPath id="clip0_25_54">
<rect width="24" height="24" fill="white" transform="translate(8 8)"/>
</clipPath>
</defs>
</svg>
